<svg width="206" height="93" viewBox="0 0 206 93" fill="none" xmlns="http://www.w3.org/2000/svg">
<g filter="url(#filter0_f_1302_1431)">
<path d="M152.731 22.3055C152.731 28.4512 148.099 32.9782 141.878 32.9782C135.658 32.9782 131.026 28.4512 131.026 22.3055C131.026 16.1598 135.658 11.6328 141.878 11.6328C148.099 11.6328 152.731 16.1598 152.731 22.3055ZM147.168 50.7623H137.823L166.406 12.3462H175.751L147.162 50.7623H147.168ZM138.398 22.3055C138.398 24.3632 139.851 26.0094 141.878 26.0094C143.906 26.0094 145.359 24.3632 145.359 22.3055C145.359 20.2478 143.906 18.6016 141.878 18.6016C139.851 18.6016 138.398 20.2478 138.398 22.3055ZM182.827 40.7975C182.827 46.9432 178.196 51.4702 171.975 51.4702C165.754 51.4702 161.122 46.9432 161.122 40.7975C161.122 34.6518 165.754 30.1248 171.975 30.1248C178.196 30.1248 182.827 34.6518 182.827 40.7975ZM168.494 40.7975C168.494 42.8552 169.947 44.5014 171.975 44.5014C174.003 44.5014 175.455 42.8552 175.455 40.7975C175.455 38.7398 174.003 37.0936 171.975 37.0936C169.947 37.0936 168.494 38.7398 168.494 40.7975Z" fill="url(#paint0_linear_1302_1431)"/>
<path d="M132.922 54.5211C131.623 54.5211 130.39 54.6857 129.245 55.0039C123.983 56.4306 120.519 60.9466 120.519 66.6972C120.519 68.4861 120.853 70.1597 121.478 71.6577C123.287 76.0146 127.524 78.8844 132.922 78.8844C140.179 78.8844 145.326 73.7154 145.326 66.7027C145.326 59.69 140.179 54.5265 132.922 54.5265V54.5211ZM132.922 72.7716C129.502 72.7716 127.14 70.2914 127.14 66.6972C127.14 63.1031 129.502 60.6229 132.922 60.6229C136.343 60.6229 138.705 63.1086 138.705 66.6972C138.705 70.2859 136.343 72.7716 132.922 72.7716Z" fill="url(#paint1_linear_1302_1431)"/>
<path d="M166.011 60.6227V54.9544H147.836V78.4453H154.205V69.9071H165.167V64.2333H154.205V60.6227H166.011Z" fill="url(#paint2_linear_1302_1431)"/>
<path d="M186.861 60.6227V54.9544H168.692V78.4453H175.061V69.9071H186.017V64.2333H175.061V60.6227H186.861Z" fill="url(#paint3_linear_1302_1431)"/>
<path d="M61.6747 52.6719V40.4683H47.4405V52.6719H29.9451L58.4135 13.4546H42.5953L11.8906 54.8175V64.9743H46.9691V78.6705H61.6692V64.9743H72.275V52.6719H61.6692H61.6747Z" fill="url(#paint4_linear_1302_1431)"/>
<path d="M120.519 66.6972C120.519 68.4861 120.853 70.1597 121.478 71.6577C125.287 67.5533 128.006 61.9508 129.245 55.0039C123.983 56.4306 120.519 60.9466 120.519 66.6972ZM102.086 12.3352C86.0762 12.3352 74.1714 24.5388 74.1714 46.0543C74.1714 67.5697 86.0817 79.7788 102.086 79.7788C109.25 79.7788 115.57 77.359 120.376 72.7771C119.532 70.9773 119.072 68.9251 119.072 66.6973C119.072 59.9699 123.292 54.8229 129.502 53.4401C129.831 51.119 130.007 48.6552 130.007 46.0598C130.007 24.5388 118.184 12.3407 102.092 12.3407L102.086 12.3352ZM102.086 67.0155C94.643 67.0155 89.4306 60.8643 89.4306 46.0543C89.4306 31.2442 94.643 25.093 102.086 25.093C109.529 25.093 114.83 31.2442 114.83 46.0543C114.83 60.8643 109.623 67.0155 102.086 67.0155Z" fill="url(#paint5_linear_1302_1431)"/>
</g>
<path d="M152.843 22.3051C152.843 28.4506 148.208 32.9774 141.982 32.9774C135.756 32.9774 131.121 28.4506 131.121 22.3051C131.121 16.1596 135.756 11.6328 141.982 11.6328C148.208 11.6328 152.843 16.1596 152.843 22.3051ZM147.275 50.7609H137.923L166.529 12.3461H175.882L147.27 50.7609H147.275ZM138.499 22.3051C138.499 24.3628 139.953 26.0089 141.982 26.0089C144.012 26.0089 145.465 24.3628 145.465 22.3051C145.465 20.2475 144.012 18.6014 141.982 18.6014C139.953 18.6014 138.499 20.2475 138.499 22.3051ZM182.963 40.7965C182.963 46.9419 178.328 51.4688 172.102 51.4688C165.876 51.4688 161.241 46.9419 161.241 40.7965C161.241 34.651 165.876 30.1242 172.102 30.1242C178.328 30.1242 182.963 34.651 182.963 40.7965ZM168.619 40.7965C168.619 42.8541 170.073 44.5002 172.102 44.5002C174.132 44.5002 175.585 42.8541 175.585 40.7965C175.585 38.7388 174.132 37.0927 172.102 37.0927C170.073 37.0927 168.619 38.7388 168.619 40.7965Z" fill="white"/>
<path d="M133.019 54.5204C131.719 54.5204 130.484 54.685 129.338 55.0033C124.072 56.4299 120.605 60.9457 120.605 66.6962C120.605 68.4849 120.94 70.1585 121.565 71.6564C123.375 76.0132 127.616 78.8829 133.019 78.8829C140.281 78.8829 145.432 73.7141 145.432 66.7016C145.432 59.6892 140.281 54.5259 133.019 54.5259V54.5204ZM133.019 72.7703C129.596 72.7703 127.232 70.2902 127.232 66.6962C127.232 63.1021 129.596 60.622 133.019 60.622C136.441 60.622 138.806 63.1076 138.806 66.6962C138.806 70.2847 136.441 72.7703 133.019 72.7703Z" fill="white"/>
<path d="M166.134 60.6223V54.9541H147.945V78.4442H154.319V69.9063H165.29V64.2327H154.319V60.6223H166.134Z" fill="white"/>
<path d="M187 60.6223V54.9541H168.816V78.4442H175.19V69.9063H186.156V64.2327H175.19V60.6223H187Z" fill="white"/>
<path d="M61.7141 52.6691V40.466H47.4686V52.6691H29.9594L58.4503 13.4532H42.6196L11.8906 54.8146V64.9711H46.9969V78.6668H61.7086V64.9711H72.3227V52.6691H61.7086H61.7141Z" fill="white"/>
<path d="M120.606 66.694C120.606 68.4828 120.941 70.1563 121.566 71.6543C125.378 67.55 128.099 61.9477 129.339 55.0011C124.073 56.4278 120.606 60.9436 120.606 66.694ZM102.159 12.3339C86.1361 12.3339 74.2219 24.5371 74.2219 46.0518C74.2219 67.5665 86.1416 79.7751 102.159 79.7751C109.328 79.7751 115.653 77.3553 120.463 72.7737C119.619 70.9739 119.158 68.9218 119.158 66.694C119.158 59.9669 123.382 54.8201 129.597 53.4373C129.926 51.1163 130.101 48.6526 130.101 46.0572C130.101 24.5371 118.269 12.3394 102.164 12.3394L102.159 12.3339ZM102.159 67.0123C94.7097 67.0123 89.4931 60.8613 89.4931 46.0518C89.4931 31.2422 94.7097 25.0912 102.159 25.0912C109.608 25.0912 114.912 31.2422 114.912 46.0518C114.912 60.8613 109.701 67.0123 102.159 67.0123Z" fill="white"/>
<path d="M23.3093 93L12 85.8303V78.3387L32 73L23.3093 93Z" fill="#00EBA8"/>
<path d="M12 85.8303L23.3093 93L32 73L12 85.8303Z" fill="#092CC9"/>
<path d="M197.021 15.9008H181L190.354 4L195.452 6.22496L197.021 15.9008Z" fill="#00EBA8"/>
<path d="M181 15.9005H197.021L195.452 6.22461L181 15.9005Z" fill="#BE1BF5"/>
<path d="M22 16.0795L4 13.3047V7.05761L13 0L22 16.0795Z" fill="#BB1FEF"/>
<path d="M4 7.05761L13 0L22 16.0795L4 7.05761Z" fill="#FBDB1D"/>
<path d="M189 77.668L198.015 89.859L204.437 83.6241L203.44 78.4831L189 77.668Z" fill="#FFB059"/>
<path d="M189 77.668L198.015 89.859L204.437 83.6241L189 77.668Z" fill="white"/>
<defs>
<filter id="filter0_f_1302_1431" x="0.449909" y="0.192097" width="197.852" height="91.0279" filterUnits="userSpaceOnUse" color-interpolation-filters="sRGB">
<feFlood flood-opacity="0" result="BackgroundImageFix"/>
<feBlend mode="normal" in="SourceGraphic" in2="BackgroundImageFix" result="shape"/>
<feGaussianBlur stdDeviation="5.72036" result="effect1_foregroundBlur_1302_1431"/>
</filter>
<linearGradient id="paint0_linear_1302_1431" x1="212.466" y1="92.7457" x2="-40.5496" y2="15.1183" gradientUnits="userSpaceOnUse">
<stop stop-color="#FFA14B"/>
<stop offset="0.375" stop-color="#0819B5"/>
<stop offset="0.708333" stop-color="#E45427"/>
<stop offset="1" stop-color="#00FF9A"/>
</linearGradient>
<linearGradient id="paint1_linear_1302_1431" x1="212.466" y1="92.7457" x2="-40.5496" y2="15.1183" gradientUnits="userSpaceOnUse">
<stop stop-color="#FFA14B"/>
<stop offset="0.375" stop-color="#0819B5"/>
<stop offset="0.708333" stop-color="#E45427"/>
<stop offset="1" stop-color="#00FF9A"/>
</linearGradient>
<linearGradient id="paint2_linear_1302_1431" x1="212.466" y1="92.7457" x2="-40.5496" y2="15.1183" gradientUnits="userSpaceOnUse">
<stop stop-color="#FFA14B"/>
<stop offset="0.375" stop-color="#0819B5"/>
<stop offset="0.708333" stop-color="#E45427"/>
<stop offset="1" stop-color="#00FF9A"/>
</linearGradient>
<linearGradient id="paint3_linear_1302_1431" x1="212.466" y1="92.7457" x2="-40.5496" y2="15.1183" gradientUnits="userSpaceOnUse">
<stop stop-color="#FFA14B"/>
<stop offset="0.375" stop-color="#0819B5"/>
<stop offset="0.708333" stop-color="#E45427"/>
<stop offset="1" stop-color="#00FF9A"/>
</linearGradient>
<linearGradient id="paint4_linear_1302_1431" x1="212.466" y1="92.7457" x2="-40.5496" y2="15.1183" gradientUnits="userSpaceOnUse">
<stop stop-color="#FFA14B"/>
<stop offset="0.375" stop-color="#0819B5"/>
<stop offset="0.708333" stop-color="#E45427"/>
<stop offset="1" stop-color="#00FF9A"/>
</linearGradient>
<linearGradient id="paint5_linear_1302_1431" x1="212.466" y1="92.7457" x2="-40.5496" y2="15.1183" gradientUnits="userSpaceOnUse">
<stop stop-color="#FFA14B"/>
<stop offset="0.375" stop-color="#0819B5"/>
<stop offset="0.708333" stop-color="#E45427"/>
<stop offset="1" stop-color="#00FF9A"/>
</linearGradient>
</defs>
</svg>
