<svg width="212" height="99" viewBox="0 0 212 99" fill="none" xmlns="http://www.w3.org/2000/svg">
<g filter="url(#filter0_f_1305_3558)">
<path d="M162.609 24.4636C162.609 31.0648 157.689 35.9272 151.081 35.9272C144.473 35.9272 139.553 31.0648 139.553 24.4636C139.553 17.8625 144.473 13 151.081 13C157.689 13 162.609 17.8625 162.609 24.4636ZM156.7 55.0293H146.773L177.136 13.7662H187.063L156.694 55.0293H156.7ZM147.384 24.4636C147.384 26.6738 148.927 28.442 151.081 28.442C153.235 28.442 154.778 26.6738 154.778 24.4636C154.778 22.2534 153.235 20.4852 151.081 20.4852C148.927 20.4852 147.384 22.2534 147.384 24.4636ZM194.579 44.326C194.579 50.9272 189.66 55.7897 183.051 55.7897C176.443 55.7897 171.523 50.9272 171.523 44.326C171.523 37.7249 176.443 32.8624 183.051 32.8624C189.66 32.8624 194.579 37.7249 194.579 44.326ZM179.354 44.326C179.354 46.5363 180.897 48.3044 183.051 48.3044C185.206 48.3044 186.748 46.5363 186.748 44.326C186.748 42.1158 185.206 40.3477 183.051 40.3477C180.897 40.3477 179.354 42.1158 179.354 44.326Z" fill="url(#paint0_linear_1305_3558)"/>
<path d="M141.567 59.0667C140.188 59.0667 138.878 59.2435 137.661 59.5853C132.071 61.1177 128.392 65.9684 128.392 72.1452C128.392 74.0666 128.747 75.8642 129.411 77.4733C131.332 82.153 135.833 85.2355 141.567 85.2355C149.276 85.2355 154.743 79.6835 154.743 72.1511C154.743 64.6187 149.276 59.0725 141.567 59.0725V59.0667ZM141.567 78.6697C137.934 78.6697 135.425 76.0057 135.425 72.1452C135.425 68.2847 137.934 65.6207 141.567 65.6207C145.201 65.6207 147.71 68.2906 147.71 72.1452C147.71 75.9998 145.201 78.6697 141.567 78.6697Z" fill="url(#paint1_linear_1305_3558)"/>
<path d="M176.717 65.6205V59.5321H157.41V84.7638H164.175V75.5929H175.82V69.4987H164.175V65.6205H176.717Z" fill="url(#paint2_linear_1305_3558)"/>
<path d="M198.865 65.6205V59.5321H179.564V84.7638H186.329V75.5929H197.968V69.4987H186.329V65.6205H198.865Z" fill="url(#paint3_linear_1305_3558)"/>
<path d="M65.8837 57.0805V43.9725H50.7633V57.0805H32.1786L62.4195 14.9568H45.6164L13 59.385V70.2946H50.2626V85.0058H65.8779V70.2946H77.144V57.0805H65.8779H65.8837Z" fill="url(#paint4_linear_1305_3558)"/>
<path d="M128.392 72.1452C128.392 74.0666 128.747 75.8642 129.411 77.4733C133.457 73.0646 136.345 67.047 137.661 59.5853C132.071 61.1177 128.392 65.9684 128.392 72.1452ZM108.811 13.7544C91.8045 13.7544 79.1585 26.8624 79.1585 49.9724C79.1585 73.0824 91.8103 86.1963 108.811 86.1963C116.421 86.1963 123.134 83.5971 128.24 78.6757C127.344 76.7425 126.855 74.5381 126.855 72.1452C126.855 64.9193 131.338 59.3908 137.934 57.9056C138.284 55.4125 138.47 52.7661 138.47 49.9783C138.47 26.8624 125.911 13.7603 108.817 13.7603L108.811 13.7544ZM108.811 72.4871C100.905 72.4871 95.3677 65.88 95.3677 49.9724C95.3677 34.0648 100.905 27.4577 108.811 27.4577C116.718 27.4577 122.348 34.0648 122.348 49.9724C122.348 65.88 116.817 72.4871 108.811 72.4871Z" fill="url(#paint5_linear_1305_3558)"/>
</g>
<path d="M162.729 24.4632C162.729 31.0641 157.805 35.9264 151.191 35.9264C144.578 35.9264 139.654 31.0641 139.654 24.4632C139.654 17.8623 144.578 13 151.191 13C157.805 13 162.729 17.8623 162.729 24.4632ZM156.814 55.0278H146.879L177.267 13.7662H187.201L156.808 55.0278H156.814ZM147.491 24.4632C147.491 26.6733 149.035 28.4414 151.191 28.4414C153.347 28.4414 154.891 26.6733 154.891 24.4632C154.891 22.2531 153.347 20.485 151.191 20.485C149.035 20.485 147.491 22.2531 147.491 24.4632ZM194.724 44.3249C194.724 50.9258 189.8 55.7881 183.187 55.7881C176.573 55.7881 171.649 50.9258 171.649 44.3249C171.649 37.724 176.573 32.8617 183.187 32.8617C189.8 32.8617 194.724 37.724 194.724 44.3249ZM179.487 44.3249C179.487 46.5351 181.031 48.3032 183.187 48.3032C185.343 48.3032 186.887 46.5351 186.887 44.3249C186.887 42.1148 185.343 40.3467 183.187 40.3467C181.031 40.3467 179.487 42.1148 179.487 44.3249Z" fill="white"/>
<path d="M141.67 59.0659C140.289 59.0659 138.978 59.2427 137.76 59.5846C132.166 61.1169 128.483 65.9674 128.483 72.144C128.483 74.0654 128.839 75.8629 129.503 77.4719C131.426 82.1515 135.93 85.2339 141.67 85.2339C149.384 85.2339 154.856 79.682 154.856 72.1499C154.856 64.6178 149.384 59.0718 141.67 59.0718V59.0659ZM141.67 78.6683C138.034 78.6683 135.522 76.0044 135.522 72.144C135.522 68.2837 138.034 65.6197 141.67 65.6197C145.306 65.6197 147.817 68.2895 147.817 72.144C147.817 75.9985 145.306 78.6683 141.67 78.6683Z" fill="white"/>
<path d="M176.847 65.62V59.5318H157.525V84.7627H164.296V75.5921H175.95V69.498H164.296V65.62H176.847Z" fill="white"/>
<path d="M199.012 65.62V59.5318H179.696V84.7627H186.467V75.5921H198.115V69.498H186.467V65.62H199.012Z" fill="white"/>
<path d="M65.9255 57.0775V43.9699H50.7931V57.0775H32.1937L62.4585 14.9553H45.6422L13 59.3819V70.2911H50.292V85.0018H65.9197V70.2911H77.1947V57.0775H65.9197H65.9255Z" fill="white"/>
<path d="M128.484 72.1417C128.484 74.0631 128.84 75.8606 129.504 77.4696C133.554 73.0611 136.444 67.0437 137.761 59.5823C132.167 61.1146 128.484 65.9651 128.484 72.1417ZM108.888 13.753C91.8682 13.753 79.2122 26.8606 79.2122 49.9697C79.2122 73.0788 91.874 86.1923 108.888 86.1923C116.504 86.1923 123.223 83.5931 128.333 78.6719C127.435 76.7388 126.946 74.5346 126.946 72.1417C126.946 64.9161 131.433 59.3878 138.035 57.9026C138.384 55.4096 138.571 52.7633 138.571 49.9756C138.571 26.8606 126.002 13.7589 108.894 13.7589L108.888 13.753ZM108.888 72.4836C100.976 72.4836 95.4342 65.8767 95.4342 49.9697C95.4342 34.0626 100.976 27.4558 108.888 27.4558C116.801 27.4558 122.436 34.0626 122.436 49.9697C122.436 65.8767 116.9 72.4836 108.888 72.4836Z" fill="white"/>
<defs>
<filter id="filter0_f_1305_3558" x="0.41642" y="0.41642" width="211.032" height="98.3625" filterUnits="userSpaceOnUse" color-interpolation-filters="sRGB">
<feFlood flood-opacity="0" result="BackgroundImageFix"/>
<feBlend mode="normal" in="SourceGraphic" in2="BackgroundImageFix" result="shape"/>
<feGaussianBlur stdDeviation="6.29179" result="effect1_foregroundBlur_1305_3558"/>
</filter>
<linearGradient id="paint0_linear_1305_3558" x1="226.064" y1="100.124" x2="-43.2135" y2="18.4187" gradientUnits="userSpaceOnUse">
<stop stop-color="#FFA14B"/>
<stop offset="0.375" stop-color="#0819B5"/>
<stop offset="0.708333" stop-color="#E45427"/>
<stop offset="1" stop-color="#00FF9A"/>
</linearGradient>
<linearGradient id="paint1_linear_1305_3558" x1="226.064" y1="100.124" x2="-43.2135" y2="18.4187" gradientUnits="userSpaceOnUse">
<stop stop-color="#FFA14B"/>
<stop offset="0.375" stop-color="#0819B5"/>
<stop offset="0.708333" stop-color="#E45427"/>
<stop offset="1" stop-color="#00FF9A"/>
</linearGradient>
<linearGradient id="paint2_linear_1305_3558" x1="226.064" y1="100.124" x2="-43.2135" y2="18.4187" gradientUnits="userSpaceOnUse">
<stop stop-color="#FFA14B"/>
<stop offset="0.375" stop-color="#0819B5"/>
<stop offset="0.708333" stop-color="#E45427"/>
<stop offset="1" stop-color="#00FF9A"/>
</linearGradient>
<linearGradient id="paint3_linear_1305_3558" x1="226.064" y1="100.124" x2="-43.2135" y2="18.4187" gradientUnits="userSpaceOnUse">
<stop stop-color="#FFA14B"/>
<stop offset="0.375" stop-color="#0819B5"/>
<stop offset="0.708333" stop-color="#E45427"/>
<stop offset="1" stop-color="#00FF9A"/>
</linearGradient>
<linearGradient id="paint4_linear_1305_3558" x1="226.064" y1="100.124" x2="-43.2135" y2="18.4187" gradientUnits="userSpaceOnUse">
<stop stop-color="#FFA14B"/>
<stop offset="0.375" stop-color="#0819B5"/>
<stop offset="0.708333" stop-color="#E45427"/>
<stop offset="1" stop-color="#00FF9A"/>
</linearGradient>
<linearGradient id="paint5_linear_1305_3558" x1="226.064" y1="100.124" x2="-43.2135" y2="18.4187" gradientUnits="userSpaceOnUse">
<stop stop-color="#FFA14B"/>
<stop offset="0.375" stop-color="#0819B5"/>
<stop offset="0.708333" stop-color="#E45427"/>
<stop offset="1" stop-color="#00FF9A"/>
</linearGradient>
</defs>
</svg>
