<svg width="26" height="26" viewBox="0 0 26 26" fill="none" xmlns="http://www.w3.org/2000/svg">
<path d="M22.4792 6.22917V19.7708C22.4792 20.9674 21.5091 21.9375 20.3125 21.9375H5.68754C4.491 21.9375 3.52087 20.9674 3.52087 19.7708V6.22917C3.52087 5.03262 4.491 4.0625 5.68754 4.0625H20.3125C21.5091 4.0625 22.4792 5.03262 22.4792 6.22917Z" stroke="#2F39BF" stroke-width="1.5" stroke-miterlimit="10" stroke-linecap="round" stroke-linejoin="round"/>
<path d="M20.3125 3.25H5.68754C4.04521 3.25 2.70837 4.58683 2.70837 6.22917V7.3125C2.70837 7.761 3.07237 8.125 3.52087 8.125H22.4792C22.9277 8.125 23.2917 7.761 23.2917 7.3125V6.22917C23.2917 4.58683 21.9549 3.25 20.3125 3.25ZM5.68754 6.5C5.23904 6.5 4.87504 6.136 4.87504 5.6875C4.87504 5.239 5.23904 4.875 5.68754 4.875C6.13604 4.875 6.50004 5.239 6.50004 5.6875C6.50004 6.136 6.13604 6.5 5.68754 6.5ZM8.39587 6.5C7.94737 6.5 7.58337 6.136 7.58337 5.6875C7.58337 5.239 7.94737 4.875 8.39587 4.875C8.84437 4.875 9.20837 5.239 9.20837 5.6875C9.20837 6.136 8.84437 6.5 8.39587 6.5ZM20.3125 6.5H11.6459C11.1974 6.5 10.8334 6.136 10.8334 5.6875C10.8334 5.239 11.1974 4.875 11.6459 4.875H20.3125C20.761 4.875 21.125 5.239 21.125 5.6875C21.125 6.136 20.761 6.5 20.3125 6.5Z" fill="#2F39BF"/>
<path fill-rule="evenodd" clip-rule="evenodd" d="M11.4904 16.4479C11.4448 16.3985 11.4073 16.3596 11.3718 16.3191C11.2371 16.1655 11.128 15.9949 11.0473 15.8061C11.0344 15.7758 11.0185 15.7649 10.9857 15.7655C10.8693 15.7676 10.7528 15.7666 10.6364 15.7662C10.5337 15.7659 10.4792 15.7136 10.4762 15.6098C10.4741 15.5402 10.4741 15.4705 10.4763 15.401C10.4796 15.2988 10.5333 15.2477 10.6339 15.2475C10.7178 15.2474 10.8019 15.2475 10.8913 15.2475C10.8703 15.0147 10.8739 14.7882 10.9231 14.5572C10.8974 14.5572 10.8776 14.5572 10.8578 14.5572C9.82589 14.5572 8.79405 14.5573 7.76213 14.5572C7.62162 14.5572 7.51748 14.4737 7.49203 14.3416C7.46197 14.1856 7.57908 14.0366 7.73665 14.0305C7.75265 14.0299 7.76867 14.0303 7.78467 14.0303C8.8777 14.0303 9.97071 14.03 11.0637 14.0313C11.104 14.0313 11.1253 14.0182 11.1452 13.9832C11.2795 13.7467 11.4558 13.5479 11.6723 13.3862C11.6837 13.3777 11.6945 13.3685 11.7043 13.3487C11.6867 13.3487 11.6689 13.3487 11.6512 13.3487C10.8187 13.3487 9.98623 13.3493 9.15368 13.3474C9.10288 13.3473 9.04783 13.3382 9.00201 13.3171C8.89339 13.2669 8.83947 13.1404 8.86682 13.0231C8.89384 12.9072 8.99935 12.8221 9.11851 12.822C9.48523 12.8216 9.852 12.8218 10.2188 12.8218C10.8897 12.8218 11.5606 12.8215 12.2316 12.8227C12.2709 12.8228 12.29 12.813 12.3032 12.7732C12.3713 12.5672 12.4705 12.3769 12.5947 12.2001C12.6063 12.1837 12.6175 12.167 12.6342 12.1427C12.6068 12.1414 12.5874 12.1397 12.5681 12.1397C11.5945 12.1396 10.6208 12.1402 9.64709 12.1381C9.59233 12.138 9.53246 12.1267 9.48393 12.1022C9.37955 12.0495 9.33141 11.9232 9.36108 11.8116C9.39337 11.69 9.49208 11.6133 9.61821 11.6133C10.7942 11.6132 11.9702 11.6131 13.1462 11.6138C13.184 11.6139 13.2158 11.605 13.2483 11.585C13.5497 11.3998 13.876 11.2968 14.228 11.2734C15.252 11.2051 16.1687 11.8898 16.4568 12.883C16.4733 12.9396 16.4885 12.9968 16.4993 13.0547C16.505 13.0853 16.5173 13.0987 16.5461 13.109C17.1844 13.3364 17.6083 13.7802 17.7961 14.439C18.0984 15.4994 17.5049 16.5874 16.4951 16.8904C16.3368 16.938 16.1749 16.9651 16.0099 16.966C15.2652 16.9702 14.5204 16.9741 13.7757 16.9748C12.3028 16.9761 10.8299 16.9754 9.35706 16.9742C9.313 16.9742 9.26594 16.968 9.22538 16.9516C9.11092 16.9052 9.05112 16.7839 9.07388 16.6589C9.09524 16.5415 9.20001 16.4522 9.32178 16.4479C9.33486 16.4475 9.34794 16.4478 9.36108 16.4478C10.048 16.4478 10.735 16.4478 11.4219 16.4478C11.4405 16.4479 11.459 16.4479 11.4904 16.4479Z" fill="#2F39BF"/>
<path fill-rule="evenodd" clip-rule="evenodd" d="M8.73607 15.7663C8.43941 15.7663 8.14276 15.7664 7.84608 15.7663C7.72611 15.7663 7.67537 15.7157 7.67487 15.5952C7.67456 15.5256 7.67372 15.456 7.6758 15.3865C7.67824 15.3048 7.73504 15.248 7.81563 15.2479C8.43074 15.2474 9.04586 15.2474 9.66098 15.248C9.74169 15.248 9.79968 15.3073 9.80223 15.3918C9.80455 15.4716 9.80461 15.5517 9.80229 15.6315C9.79997 15.7111 9.73557 15.7661 9.64784 15.7662C9.44424 15.7666 9.24063 15.7664 9.03709 15.7664C8.93673 15.7663 8.83643 15.7663 8.73607 15.7663Z" fill="#2F39BF"/>
</svg>
