<svg width="26" height="26" viewBox="0 0 26 26" fill="none" xmlns="http://www.w3.org/2000/svg">
<path d="M22.4792 6.22917V19.7708C22.4792 20.9674 21.5091 21.9375 20.3125 21.9375H5.68754C4.491 21.9375 3.52087 20.9674 3.52087 19.7708V6.22917C3.52087 5.03262 4.491 4.0625 5.68754 4.0625H20.3125C21.5091 4.0625 22.4792 5.03262 22.4792 6.22917Z" stroke="#2F39BF" stroke-width="1.5" stroke-miterlimit="10" stroke-linecap="round" stroke-linejoin="round"/>
<path d="M20.3125 3.25H5.68754C4.04521 3.25 2.70837 4.58683 2.70837 6.22917V7.3125C2.70837 7.761 3.07237 8.125 3.52087 8.125H22.4792C22.9277 8.125 23.2917 7.761 23.2917 7.3125V6.22917C23.2917 4.58683 21.9549 3.25 20.3125 3.25ZM5.68754 6.5C5.23904 6.5 4.87504 6.136 4.87504 5.6875C4.87504 5.239 5.23904 4.875 5.68754 4.875C6.13604 4.875 6.50004 5.239 6.50004 5.6875C6.50004 6.136 6.13604 6.5 5.68754 6.5ZM8.39587 6.5C7.94737 6.5 7.58337 6.136 7.58337 5.6875C7.58337 5.239 7.94737 4.875 8.39587 4.875C8.84437 4.875 9.20837 5.239 9.20837 5.6875C9.20837 6.136 8.84437 6.5 8.39587 6.5ZM20.3125 6.5H11.6459C11.1974 6.5 10.8334 6.136 10.8334 5.6875C10.8334 5.239 11.1974 4.875 11.6459 4.875H20.3125C20.761 4.875 21.125 5.239 21.125 5.6875C21.125 6.136 20.761 6.5 20.3125 6.5Z" fill="#2F39BF"/>
<path d="M14.6003 11.0784C14.6906 11.028 14.7913 11.0011 14.8939 11C15.0104 10.999 15.1249 11.0313 15.2247 11.0934C15.3246 11.1555 15.4059 11.2449 15.4596 11.3519C15.5134 11.4588 15.5376 11.579 15.5295 11.6993C15.5214 11.8195 15.4813 11.9351 15.4137 12.0333L11.6242 17.6983C11.5785 17.7723 11.5188 17.8361 11.4487 17.8857C11.3786 17.9354 11.2996 17.9699 11.2163 17.9872C11.1331 18.0045 11.0473 18.0043 10.9641 17.9865C10.881 17.9687 10.8021 17.9337 10.7323 17.8837C10.6625 17.8337 10.6031 17.7696 10.5578 17.6952C10.5125 17.6209 10.4821 17.5379 10.4685 17.4512C10.4548 17.3644 10.4583 17.2757 10.4785 17.1904C10.4988 17.105 10.5354 17.0248 10.5863 16.9544L14.3758 11.2894C14.433 11.2013 14.51 11.1288 14.6003 11.0784Z" fill="#2F39BF"/>
<path d="M9.4227 11.5677C9.71389 11.2287 10.1754 11.0077 10.6842 11.0077C11.193 11.0077 11.6545 11.2287 11.9457 11.5677C12.2369 11.9068 12.3684 12.3332 12.3684 12.7508C12.3684 13.1684 12.2369 13.5948 11.9457 13.9338C11.6545 14.2728 11.193 14.4938 10.6842 14.4938C10.1754 14.4938 9.71389 14.2728 9.4227 13.9338C9.13151 13.5948 9 13.1684 9 12.7508C9 12.3332 9.13151 11.9068 9.4227 11.5677Z" fill="#2F39BF"/>
<path d="M14.0543 15.0539C14.3455 14.7148 14.807 14.4938 15.3158 14.4938C15.8246 14.4938 16.2861 14.7148 16.5773 15.0539C16.8685 15.3929 17 15.8193 17 16.2369C17 16.6545 16.8685 17.0809 16.5773 17.42C16.2861 17.759 15.8246 17.98 15.3158 17.98C14.807 17.98 14.3455 17.759 14.0543 17.42C13.7631 17.0809 13.6316 16.6545 13.6316 16.2369C13.6316 15.8193 13.7631 15.3929 14.0543 15.0539Z" fill="#2F39BF"/>
</svg>
