<svg width="26" height="26" viewBox="0 0 26 26" fill="none" xmlns="http://www.w3.org/2000/svg">
<path d="M5.68754 3.25C5.58489 3.25 5.48392 3.25568 5.38391 3.26587C5.18459 3.28618 4.99106 3.32655 4.80522 3.38436C3.87145 3.6748 3.13317 4.41308 2.84273 5.34684C2.78493 5.53269 2.74456 5.72622 2.72424 5.92554V5.9266C2.71412 6.02627 2.70837 6.12688 2.70837 6.22917V7.3125V19.7708C2.70837 21.4065 4.05183 22.75 5.68754 22.75H20.3125C21.9483 22.75 23.2917 21.4065 23.2917 19.7708V7.3125V6.22917C23.2917 6.12658 23.2861 6.02557 23.2758 5.92554C23.2555 5.72622 23.2152 5.53269 23.1573 5.34684C22.8669 4.41308 22.1286 3.6748 21.1949 3.38436C21.009 3.32655 20.8155 3.28618 20.6162 3.26587H20.6151C20.5154 3.25563 20.4148 3.25 20.3125 3.25H5.68754ZM5.68754 4.875C6.13604 4.875 6.50004 5.239 6.50004 5.6875C6.50004 6.136 6.13604 6.5 5.68754 6.5C5.23904 6.5 4.87504 6.136 4.87504 5.6875C4.87504 5.239 5.23904 4.875 5.68754 4.875ZM8.39587 4.875C8.84437 4.875 9.20837 5.239 9.20837 5.6875C9.20837 6.136 8.84437 6.5 8.39587 6.5C7.94737 6.5 7.58337 6.136 7.58337 5.6875C7.58337 5.239 7.94737 4.875 8.39587 4.875ZM4.33337 8.125H21.6667V19.7708C21.6667 20.5282 21.0699 21.125 20.3125 21.125H5.68754C4.93017 21.125 4.33337 20.5282 4.33337 19.7708V8.125ZM9.43795 9.75C8.40083 9.75 7.54211 10.6081 7.54211 11.6458V13.1365C7.52732 13.2251 7.52732 13.3155 7.54211 13.4041V18.6875C7.54214 18.903 7.62775 19.1096 7.78011 19.262C7.93248 19.4144 8.13913 19.5 8.35461 19.5H17.5629C17.7784 19.5 17.9851 19.4144 18.1374 19.262C18.2898 19.1096 18.3754 18.903 18.3754 18.6875V13.3978C18.3888 13.3137 18.3888 13.228 18.3754 13.1439V11.6458C18.3754 10.6086 17.5169 9.75 16.4796 9.75H9.43795ZM9.43795 11.375H16.4796C16.6394 11.375 16.7504 11.486 16.7504 11.6458V12.4583H9.16711V11.6458C9.16711 11.4865 9.27907 11.375 9.43795 11.375ZM9.16711 14.0833H16.7504V17.875H9.16711V14.0833Z" fill="#2F39BF"/>
</svg>
